<mxfile host="app.diagrams.net" agent="Mozilla/5.0 (Macintosh; Intel Mac OS X 10_15_7) AppleWebKit/537.36 (KHTML, like Gecko) Chrome/140.0.0.0 Safari/537.36" version="28.2.5">
  <diagram name="Page-1" id="dgPMQ8wEyaBYNOFkCbzk">
    <mxGraphModel dx="1159" dy="1038" grid="1" gridSize="10" guides="1" tooltips="1" connect="1" arrows="1" fold="1" page="1" pageScale="1" pageWidth="850" pageHeight="1100" math="0" shadow="0">
      <root>
        <mxCell id="0" />
        <mxCell id="1" parent="0" />
        <mxCell id="zA9s-5bcym3stk-Elndh-14" style="edgeStyle=orthogonalEdgeStyle;rounded=0;orthogonalLoop=1;jettySize=auto;html=1;entryX=0;entryY=0.5;entryDx=0;entryDy=0;" edge="1" parent="1" source="zA9s-5bcym3stk-Elndh-1" target="zA9s-5bcym3stk-Elndh-2">
          <mxGeometry relative="1" as="geometry">
            <Array as="points">
              <mxPoint x="155" y="265" />
              <mxPoint x="155" y="215" />
            </Array>
          </mxGeometry>
        </mxCell>
        <mxCell id="zA9s-5bcym3stk-Elndh-18" style="edgeStyle=orthogonalEdgeStyle;rounded=0;orthogonalLoop=1;jettySize=auto;html=1;entryX=0;entryY=0.5;entryDx=0;entryDy=0;" edge="1" parent="1" source="zA9s-5bcym3stk-Elndh-1" target="zA9s-5bcym3stk-Elndh-4">
          <mxGeometry relative="1" as="geometry">
            <Array as="points">
              <mxPoint x="155" y="265" />
              <mxPoint x="155" y="630" />
            </Array>
          </mxGeometry>
        </mxCell>
        <mxCell id="zA9s-5bcym3stk-Elndh-19" style="edgeStyle=orthogonalEdgeStyle;rounded=0;orthogonalLoop=1;jettySize=auto;html=1;" edge="1" parent="1" source="zA9s-5bcym3stk-Elndh-1" target="zA9s-5bcym3stk-Elndh-6">
          <mxGeometry relative="1" as="geometry">
            <Array as="points">
              <mxPoint x="160" y="265" />
              <mxPoint x="160" y="355" />
            </Array>
          </mxGeometry>
        </mxCell>
        <mxCell id="zA9s-5bcym3stk-Elndh-20" style="edgeStyle=orthogonalEdgeStyle;rounded=0;orthogonalLoop=1;jettySize=auto;html=1;entryX=0;entryY=0.5;entryDx=0;entryDy=0;" edge="1" parent="1" source="zA9s-5bcym3stk-Elndh-1" target="zA9s-5bcym3stk-Elndh-3">
          <mxGeometry relative="1" as="geometry" />
        </mxCell>
        <mxCell id="zA9s-5bcym3stk-Elndh-1" value="Customer" style="shape=umlActor;verticalLabelPosition=bottom;verticalAlign=top;html=1;" vertex="1" parent="1">
          <mxGeometry x="40" y="230" width="40" height="70" as="geometry" />
        </mxCell>
        <mxCell id="zA9s-5bcym3stk-Elndh-23" style="edgeStyle=orthogonalEdgeStyle;rounded=0;orthogonalLoop=1;jettySize=auto;html=1;entryX=0;entryY=0.5;entryDx=0;entryDy=0;" edge="1" parent="1" source="zA9s-5bcym3stk-Elndh-2" target="zA9s-5bcym3stk-Elndh-11">
          <mxGeometry relative="1" as="geometry" />
        </mxCell>
        <mxCell id="zA9s-5bcym3stk-Elndh-27" value="Extend" style="edgeLabel;html=1;align=center;verticalAlign=middle;resizable=0;points=[];" vertex="1" connectable="0" parent="zA9s-5bcym3stk-Elndh-23">
          <mxGeometry x="-0.3889" y="-4" relative="1" as="geometry">
            <mxPoint as="offset" />
          </mxGeometry>
        </mxCell>
        <mxCell id="zA9s-5bcym3stk-Elndh-2" value="Login" style="ellipse;whiteSpace=wrap;html=1;" vertex="1" parent="1">
          <mxGeometry x="230" y="180" width="140" height="70" as="geometry" />
        </mxCell>
        <mxCell id="zA9s-5bcym3stk-Elndh-21" style="edgeStyle=orthogonalEdgeStyle;rounded=0;orthogonalLoop=1;jettySize=auto;html=1;entryX=0;entryY=0.5;entryDx=0;entryDy=0;" edge="1" parent="1" source="zA9s-5bcym3stk-Elndh-3" target="zA9s-5bcym3stk-Elndh-7">
          <mxGeometry relative="1" as="geometry" />
        </mxCell>
        <mxCell id="zA9s-5bcym3stk-Elndh-22" value="Extend" style="edgeLabel;html=1;align=center;verticalAlign=middle;resizable=0;points=[];" vertex="1" connectable="0" parent="zA9s-5bcym3stk-Elndh-21">
          <mxGeometry x="0.0381" relative="1" as="geometry">
            <mxPoint as="offset" />
          </mxGeometry>
        </mxCell>
        <mxCell id="zA9s-5bcym3stk-Elndh-3" value="Register Account" style="ellipse;whiteSpace=wrap;html=1;" vertex="1" parent="1">
          <mxGeometry x="230" y="40" width="140" height="70" as="geometry" />
        </mxCell>
        <mxCell id="zA9s-5bcym3stk-Elndh-30" style="edgeStyle=orthogonalEdgeStyle;rounded=0;orthogonalLoop=1;jettySize=auto;html=1;entryX=0;entryY=0.5;entryDx=0;entryDy=0;" edge="1" parent="1" source="zA9s-5bcym3stk-Elndh-4" target="zA9s-5bcym3stk-Elndh-8">
          <mxGeometry relative="1" as="geometry" />
        </mxCell>
        <mxCell id="zA9s-5bcym3stk-Elndh-32" value="Include" style="edgeLabel;html=1;align=center;verticalAlign=middle;resizable=0;points=[];" vertex="1" connectable="0" parent="zA9s-5bcym3stk-Elndh-30">
          <mxGeometry x="0.7705" y="-3" relative="1" as="geometry">
            <mxPoint as="offset" />
          </mxGeometry>
        </mxCell>
        <mxCell id="zA9s-5bcym3stk-Elndh-31" style="edgeStyle=orthogonalEdgeStyle;rounded=0;orthogonalLoop=1;jettySize=auto;html=1;entryX=0;entryY=0.5;entryDx=0;entryDy=0;" edge="1" parent="1" source="zA9s-5bcym3stk-Elndh-4" target="zA9s-5bcym3stk-Elndh-9">
          <mxGeometry relative="1" as="geometry" />
        </mxCell>
        <mxCell id="zA9s-5bcym3stk-Elndh-33" value="Exclude" style="edgeLabel;html=1;align=center;verticalAlign=middle;resizable=0;points=[];" vertex="1" connectable="0" parent="zA9s-5bcym3stk-Elndh-31">
          <mxGeometry x="0.3405" y="-2" relative="1" as="geometry">
            <mxPoint as="offset" />
          </mxGeometry>
        </mxCell>
        <mxCell id="zA9s-5bcym3stk-Elndh-4" value="Checkout" style="ellipse;whiteSpace=wrap;html=1;" vertex="1" parent="1">
          <mxGeometry x="230" y="595" width="140" height="70" as="geometry" />
        </mxCell>
        <mxCell id="zA9s-5bcym3stk-Elndh-25" style="edgeStyle=orthogonalEdgeStyle;rounded=0;orthogonalLoop=1;jettySize=auto;html=1;" edge="1" parent="1" source="zA9s-5bcym3stk-Elndh-5" target="zA9s-5bcym3stk-Elndh-10">
          <mxGeometry relative="1" as="geometry">
            <Array as="points">
              <mxPoint x="430" y="505" />
              <mxPoint x="430" y="365" />
            </Array>
          </mxGeometry>
        </mxCell>
        <mxCell id="zA9s-5bcym3stk-Elndh-29" value="Include" style="edgeLabel;html=1;align=center;verticalAlign=middle;resizable=0;points=[];" vertex="1" connectable="0" parent="zA9s-5bcym3stk-Elndh-25">
          <mxGeometry x="-0.8375" y="-3" relative="1" as="geometry">
            <mxPoint as="offset" />
          </mxGeometry>
        </mxCell>
        <mxCell id="zA9s-5bcym3stk-Elndh-5" value="Add to cart" style="ellipse;whiteSpace=wrap;html=1;" vertex="1" parent="1">
          <mxGeometry x="230" y="470" width="140" height="70" as="geometry" />
        </mxCell>
        <mxCell id="zA9s-5bcym3stk-Elndh-24" style="edgeStyle=orthogonalEdgeStyle;rounded=0;orthogonalLoop=1;jettySize=auto;html=1;" edge="1" parent="1" source="zA9s-5bcym3stk-Elndh-6" target="zA9s-5bcym3stk-Elndh-11">
          <mxGeometry relative="1" as="geometry">
            <Array as="points">
              <mxPoint x="470" y="355" />
              <mxPoint x="470" y="215" />
            </Array>
          </mxGeometry>
        </mxCell>
        <mxCell id="zA9s-5bcym3stk-Elndh-28" value="Extend" style="edgeLabel;html=1;align=center;verticalAlign=middle;resizable=0;points=[];" vertex="1" connectable="0" parent="zA9s-5bcym3stk-Elndh-24">
          <mxGeometry x="-0.7062" y="-4" relative="1" as="geometry">
            <mxPoint as="offset" />
          </mxGeometry>
        </mxCell>
        <mxCell id="zA9s-5bcym3stk-Elndh-6" value="Browse/View Products" style="ellipse;whiteSpace=wrap;html=1;" vertex="1" parent="1">
          <mxGeometry x="230" y="320" width="140" height="70" as="geometry" />
        </mxCell>
        <mxCell id="zA9s-5bcym3stk-Elndh-7" value="Payment System" style="html=1;whiteSpace=wrap;" vertex="1" parent="1">
          <mxGeometry x="580" y="50" width="110" height="50" as="geometry" />
        </mxCell>
        <mxCell id="zA9s-5bcym3stk-Elndh-8" value="Update Inventory" style="ellipse;whiteSpace=wrap;html=1;" vertex="1" parent="1">
          <mxGeometry x="550" y="470" width="140" height="70" as="geometry" />
        </mxCell>
        <mxCell id="zA9s-5bcym3stk-Elndh-9" value="Manage Products" style="ellipse;whiteSpace=wrap;html=1;" vertex="1" parent="1">
          <mxGeometry x="550" y="600" width="140" height="70" as="geometry" />
        </mxCell>
        <mxCell id="zA9s-5bcym3stk-Elndh-34" style="edgeStyle=orthogonalEdgeStyle;rounded=0;orthogonalLoop=1;jettySize=auto;html=1;entryX=0;entryY=0.5;entryDx=0;entryDy=0;" edge="1" parent="1" source="zA9s-5bcym3stk-Elndh-10" target="zA9s-5bcym3stk-Elndh-12">
          <mxGeometry relative="1" as="geometry" />
        </mxCell>
        <mxCell id="zA9s-5bcym3stk-Elndh-10" value="Checkout" style="ellipse;whiteSpace=wrap;html=1;" vertex="1" parent="1">
          <mxGeometry x="550" y="330" width="140" height="70" as="geometry" />
        </mxCell>
        <mxCell id="zA9s-5bcym3stk-Elndh-11" value="Process" style="ellipse;whiteSpace=wrap;html=1;" vertex="1" parent="1">
          <mxGeometry x="550" y="180" width="140" height="70" as="geometry" />
        </mxCell>
        <mxCell id="zA9s-5bcym3stk-Elndh-12" value="Shipping System" style="html=1;whiteSpace=wrap;" vertex="1" parent="1">
          <mxGeometry x="860" y="340" width="110" height="50" as="geometry" />
        </mxCell>
        <mxCell id="zA9s-5bcym3stk-Elndh-13" value="Admin&lt;div&gt;&lt;br&gt;&lt;/div&gt;" style="shape=umlActor;verticalLabelPosition=bottom;verticalAlign=top;html=1;" vertex="1" parent="1">
          <mxGeometry x="900" y="595" width="30" height="60" as="geometry" />
        </mxCell>
        <mxCell id="zA9s-5bcym3stk-Elndh-15" style="edgeStyle=orthogonalEdgeStyle;rounded=0;orthogonalLoop=1;jettySize=auto;html=1;entryX=0;entryY=0.671;entryDx=0;entryDy=0;entryPerimeter=0;" edge="1" parent="1" source="zA9s-5bcym3stk-Elndh-1" target="zA9s-5bcym3stk-Elndh-5">
          <mxGeometry relative="1" as="geometry">
            <Array as="points">
              <mxPoint x="160" y="265" />
              <mxPoint x="160" y="517" />
            </Array>
          </mxGeometry>
        </mxCell>
        <mxCell id="zA9s-5bcym3stk-Elndh-35" style="edgeStyle=orthogonalEdgeStyle;rounded=0;orthogonalLoop=1;jettySize=auto;html=1;entryX=0.367;entryY=0.633;entryDx=0;entryDy=0;entryPerimeter=0;" edge="1" parent="1" source="zA9s-5bcym3stk-Elndh-9" target="zA9s-5bcym3stk-Elndh-13">
          <mxGeometry relative="1" as="geometry" />
        </mxCell>
      </root>
    </mxGraphModel>
  </diagram>
</mxfile>
